<?xml version="1.0" encoding="iso-8859-1"?>
<!-- Generator: Adobe Illustrator 19.0.0, SVG Export Plug-In . SVG Version: 6.00 Build 0)  -->
<svg version="1.1" id="Capa_1" xmlns="http://www.w3.org/2000/svg" xmlns:xlink="http://www.w3.org/1999/xlink" x="0px" y="0px"
	 viewBox="0 0 512 512" style="enable-background:new 0 0 512 512;" xml:space="preserve">
<g>
	<g>
		<path style="fill:#02afcf;" d="M466.294,245.397c-26.299-11.521-62.699-20.601-105.416-26.314c-1.581-3.158-3.247-6.32-5.012-9.466
			c-25.443-45.359-59.977-69.335-99.866-69.335c-33.523,0-63.261,16.939-87.002,49.268l-13.337-10.491
			c-3.423-2.693-7.851-3.827-12.147-3.11c-4.296,0.717-8.116,3.227-10.479,6.885l-9.124,14.125l-3.303-2.188
			c-3.77-2.498-8.427-3.227-12.78-2c-4.352,1.227-7.944,4.281-9.854,8.379L87.46,223.702c-1.173,2.517-1.63,5.266-1.383,7.968
			C50.256,241.262,0,260.372,0,292.072c0,23.235,27.039,43.366,78.193,58.217c47.596,13.818,110.743,21.428,177.807,21.428
			s130.211-7.61,177.807-21.428C484.961,335.438,512,315.307,512,292.072C512,274.386,496.623,258.682,466.294,245.397z
			 M169.216,216.956c28.593-50.974,62.975-61.674,86.784-61.674c43.135,0,71.002,33.538,86.784,61.674
			c8.05,14.352,14.09,29.314,18.313,42.183c-4.96,2.807-13.328,6.317-27.28,9.601c-4.032,0.949-6.531,4.987-5.582,9.019
			c0.813,3.454,3.893,5.783,7.294,5.783c0.569,0,1.147-0.065,1.725-0.201c11.45-2.695,20.87-5.887,28.156-9.521
			c2.252,8.748,3.332,15.337,3.332,18.253c0,1.951-5.447,8.973-29.65,15.427c-22.098,5.893-51.607,9.138-83.091,9.138
			s-60.993-3.246-83.091-9.138c-24.203-6.454-29.65-13.476-29.65-15.427c0-2.917,1.082-9.511,3.335-18.265
			c22.018,10.932,63.166,17.749,109.406,17.749c17.009,0,33.484-0.915,48.966-2.719c4.114-0.479,7.061-4.203,6.582-8.317
			c-0.479-4.114-4.2-7.059-8.318-6.582c-14.908,1.737-30.798,2.618-47.229,2.618c-37.158,0-84.387-5.466-105.102-17.398
			C155.12,246.285,161.162,231.314,169.216,216.956z M145.634,190.974c0.034-0.052,0.123-0.191,0.348-0.229
			c0.221-0.038,0.354,0.064,0.404,0.104l14.218,11.185c-1.519,2.461-3.011,4.983-4.471,7.585c-1.195,2.13-2.345,4.269-3.455,6.407
			l-16.265-10.779L145.634,190.974z M101.056,230.039l10.512-22.553c0.027-0.059,0.1-0.215,0.328-0.279
			c0.229-0.065,0.371,0.031,0.425,0.066l33.809,22.405c-1.923,4.348-3.676,8.64-5.265,12.82l-39.489-11.747
			c-0.062-0.019-0.226-0.067-0.323-0.283C100.956,230.253,101.029,230.099,101.056,230.039z M429.625,335.884
			C383.35,349.319,321.689,356.718,256,356.718s-127.35-7.399-173.625-20.833C40.187,323.636,15,307.258,15,292.072
			c0-16.854,30.807-34.896,80.635-47.378l40.297,11.987c-5.313,16.788-7.674,30.169-7.674,35.392
			c0,12.637,13.722,22.703,40.786,29.92c23.323,6.22,54.205,9.645,86.956,9.645s63.633-3.425,86.956-9.645
			c27.063-7.217,40.786-17.283,40.786-29.92c0-7.305-4.612-30.562-15.481-56.802C456.601,248.374,497,273.505,497,292.072
			C497,307.258,471.813,323.636,429.625,335.884z"/>
	</g>
</g>
<g>
</g>
<g>
</g>
<g>
</g>
<g>
</g>
<g>
</g>
<g>
</g>
<g>
</g>
<g>
</g>
<g>
</g>
<g>
</g>
<g>
</g>
<g>
</g>
<g>
</g>
<g>
</g>
<g>
</g>
</svg>
