<svg id="Capa_1" enable-background="new 0 0 512 512" height="512" viewBox="0 0 512 512" width="512" xmlns="http://www.w3.org/2000/svg"><g><path style="fill:#02afcf;" d="m506.218 465.887c-85.233-66.401-184.4-28.25-286.003-1.759l-36.295-135.456c-10.092-3.912-21.858-1.05-28.947 7.874l36.094 134.71c-57.347 12.893-114.974 17.961-169.803-7.172-7.53-3.452-16.433-.145-19.885 7.385-3.452 7.531-.146 16.434 7.386 19.886 171.867 78.78 352.352-100.488 479.017-1.803 6.534 5.09 15.959 3.92 21.051-2.614 5.09-6.535 3.92-15.96-2.615-21.051z"/><path style="fill:#02afcf;" d="m97.584 122.362c9.959-3.506 19.178-5.914 28.983-7.742l-.882-3.293c-2.144-8.001-10.367-12.751-18.371-10.606-8.002 2.144-12.75 10.369-10.606 18.371z"/><path style="fill:#02afcf;" d="m285.291 135.96h15.95c8.284 0 15-6.716 15-15s-6.716-15-15-15h-15.95c-8.284 0-15 6.716-15 15s6.716 15 15 15z"/><ellipse cx="391.053" cy="120.96" rx="50.403" ry="50.402" transform="matrix(.04 -.999 .999 .04 254.562 506.867)"/><path style="fill:#02afcf;" d="m391.053 45.96c8.284 0 15-6.716 15-15v-15.95c0-8.284-6.716-15-15-15s-15 6.716-15 15v15.95c0 8.284 6.716 15 15 15z"/><path style="fill:#02afcf;" d="m316.809 67.927c5.856 5.858 15.355 5.859 21.212 0 5.858-5.858 5.858-15.355 0-21.213l-11.278-11.278c-5.857-5.858-15.355-5.858-21.212 0-5.858 5.858-5.858 15.355 0 21.213z"/><path style="fill:#02afcf;" d="m316.809 173.993-11.278 11.278c-5.858 5.858-5.858 15.355 0 21.213 5.856 5.858 15.355 5.859 21.212 0l11.278-11.278c5.858-5.858 5.858-15.355 0-21.213-5.857-5.858-15.355-5.858-21.212 0z"/><path style="fill:#02afcf;" d="m376.053 210.96v15.95c0 8.284 6.716 15 15 15s15-6.716 15-15v-15.95c0-8.284-6.716-15-15-15s-15 6.716-15 15z"/><path style="fill:#02afcf;" d="m444.084 173.993c-5.858 5.858-5.858 15.355 0 21.213l11.278 11.278c5.856 5.858 15.355 5.859 21.212 0 5.858-5.858 5.858-15.355 0-21.213l-11.278-11.278c-5.857-5.858-15.355-5.858-21.212 0z"/><path style="fill:#02afcf;" d="m466.05 120.96c0 8.284 6.716 15 15 15h15.95c8.284 0 15-6.716 15-15s-6.716-15-15-15h-15.95c-8.284 0-15 6.716-15 15z"/><path style="fill:#02afcf;" d="m465.296 67.927 11.278-11.278c5.858-5.858 5.858-15.355 0-21.213-5.857-5.858-15.355-5.858-21.212 0l-11.278 11.278c-5.858 5.858-5.858 15.355 0 21.213 5.857 5.858 15.355 5.859 21.212 0z"/><path style="fill:#02afcf;" d="m132.52 316.632c14.738-17.49 38.703-24.07 60.272-16.641-4.206-57.398-28.811-97.047-65.392-123.113-19.025 41.869-19.689 88.209 5.12 139.754z"/><path style="fill:#02afcf;" d="m33.055 349.107c14.908-24.718 45.81-33.735 71.498-21.366-4.599-9.426-15.343-28.241-19.604-63.396-4.808-39.665 2.793-78.816 21.986-113.461-78.612 28.107-123.566 112.432-101.195 194.425 3.464 12.694 20.492 15.112 27.315 3.798z"/><path style="fill:#02afcf;" d="m207.88 231.405c12.562 29.468 13.57 48.264 14.777 65.58 15.791-24.323 47.551-32.451 73.157-18.407 11.537 6.328 25.073-4.268 21.716-16.982-21.745-82.329-103.176-132.867-185.495-117.502 33.979 20.406 60.165 50.528 75.845 87.311z"/></g></svg>