<?xml version="1.0" encoding="iso-8859-1"?>
<!-- Generator: Adobe Illustrator 19.0.0, SVG Export Plug-In . SVG Version: 6.00 Build 0)  -->
<svg version="1.1" id="Capa_1" xmlns="http://www.w3.org/2000/svg" xmlns:xlink="http://www.w3.org/1999/xlink" x="0px" y="0px"
	 viewBox="0 0 512 512" style="enable-background:new 0 0 512 512;" xml:space="preserve">
<g>
	<g>
		<g>
			<rect x="237.714" y="36.571" width="36.571" height="36.571"/>
			<circle cx="256" cy="329.143" r="36.571"/>
			<path d="M192,109.714V128h128v-18.286c-0.01-10.095-8.191-18.276-18.286-18.286h-91.429C200.191,91.439,192.01,99.62,192,109.714
				z"/>
			<path style="fill:#02afcf;" d="M118.857,18.286H320c5.049,0,9.143-4.093,9.143-9.143C329.143,4.093,325.049,0,320,0H118.857
				c-5.049,0-9.143,4.093-9.143,9.143C109.714,14.192,113.808,18.286,118.857,18.286z"/>
			<path style="fill:#02afcf;" d="M374.857,146.286H137.143c-15.141,0.017-27.412,12.287-27.429,27.429v310.857c0.017,15.142,12.287,27.412,27.429,27.429
				h237.714c15.141-0.016,27.412-12.287,27.429-27.429V173.714C402.269,158.573,389.999,146.302,374.857,146.286z M322.692,280.08
				l23.75-13.714c4.374-2.522,9.963-1.022,12.487,3.351c2.524,4.372,1.027,9.963-3.344,12.489l-23.75,13.714
				c-2.83,1.635-6.317,1.636-9.147,0.002c-2.83-1.634-4.574-4.654-4.573-7.922S319.861,281.713,322.692,280.08z M289.223,253.308
				l13.714-23.75c2.526-4.371,8.116-5.868,12.489-3.344s5.872,8.113,3.351,12.487l-13.714,23.75
				c-1.632,2.831-4.651,4.576-7.92,4.577s-6.288-1.742-7.922-4.573C287.587,259.625,287.588,256.138,289.223,253.308z
				 M310.857,329.143C310.857,359.44,286.297,384,256,384s-54.857-24.56-54.857-54.857s24.56-54.857,54.857-54.857
				C286.283,274.319,310.824,298.86,310.857,329.143z M246.857,219.429c0-5.049,4.093-9.143,9.143-9.143
				c5.049,0,9.143,4.093,9.143,9.143v27.429c0,5.049-4.093,9.143-9.143,9.143c-5.049,0-9.143-4.093-9.143-9.143V219.429z
				 M196.571,226.21c2.1-1.213,4.596-1.542,6.939-0.914c2.343,0.628,4.34,2.161,5.552,4.262l13.714,23.75
				c2.522,4.374,1.022,9.963-3.351,12.487c-4.372,2.524-9.963,1.027-12.489-3.344l-13.714-23.75
				C190.7,234.327,192.199,228.735,196.571,226.21z M153.067,269.714c1.212-2.101,3.209-3.634,5.552-4.262
				c2.343-0.628,4.839-0.299,6.939,0.914l23.75,13.714c4.371,2.526,5.868,8.116,3.344,12.489s-8.113,5.872-12.487,3.351
				l-23.75-13.714C152.042,279.68,150.544,274.088,153.067,269.714z M137.143,329.143c0-5.049,4.093-9.143,9.143-9.143h27.429
				c5.049,0,9.143,4.093,9.143,9.143s-4.093,9.143-9.143,9.143h-27.429C141.236,338.286,137.143,334.192,137.143,329.143z
				 M189.308,378.205l-23.75,13.714c-2.83,1.635-6.317,1.636-9.147,0.002c-2.83-1.634-4.574-4.654-4.573-7.922
				c0.001-3.268,1.746-6.287,4.577-7.92l23.75-13.714c4.374-2.522,9.963-1.022,12.487,3.351S193.679,375.679,189.308,378.205z
				 M222.777,404.978l-13.714,23.75c-1.632,2.831-4.651,4.576-7.92,4.577s-6.288-1.742-7.922-4.573
				c-1.634-2.83-1.633-6.318,0.002-9.147l13.714-23.75c2.526-4.371,8.116-5.868,12.489-3.344
				C223.799,395.014,225.298,400.604,222.777,404.978z M265.143,438.857c0,5.049-4.093,9.143-9.143,9.143
				c-5.049,0-9.143-4.093-9.143-9.143v-27.429c0-5.049,4.093-9.143,9.143-9.143c5.049,0,9.143,4.093,9.143,9.143V438.857z
				 M315.429,432.076c-4.374,2.522-9.965,1.024-12.491-3.348l-13.714-23.75c-1.635-2.83-1.636-6.317-0.002-9.147
				c1.634-2.83,4.654-4.574,7.922-4.573s6.287,1.746,7.92,4.577l13.714,23.75C321.3,423.959,319.801,429.55,315.429,432.076z
				 M358.933,388.571c-2.526,4.372-8.117,5.87-12.491,3.348l-23.75-13.714c-2.831-1.632-4.576-4.651-4.577-7.92
				s1.742-6.288,4.573-7.922c2.83-1.634,6.318-1.633,9.147,0.002l23.75,13.714C359.958,378.606,361.456,384.197,358.933,388.571z
				 M365.714,338.286h-27.429c-5.049,0-9.143-4.093-9.143-9.143s4.093-9.143,9.143-9.143h27.429c5.049,0,9.143,4.093,9.143,9.143
				S370.764,338.286,365.714,338.286z"/>
		</g>
	</g>
</g>
<g>
</g>
<g>
</g>
<g>
</g>
<g>
</g>
<g>
</g>
<g>
</g>
<g>
</g>
<g>
</g>
<g>
</g>
<g>
</g>
<g>
</g>
<g>
</g>
<g>
</g>
<g>
</g>
<g>
</g>
</svg>
